<svg xmlns="http://www.w3.org/2000/svg" width="320" height="240">
	<rect id="x14y0" class="rect" fill="rgb(0,0,0)" height="10" width="10" x="140" y="0"/>
	<rect id="x15y0" class="rect" fill="rgb(0,0,0)" height="10" width="10" x="150" y="0"/>
	<rect id="x16y0" class="rect" fill="rgb(0,0,0)" height="10" width="10" x="160" y="0"/>
	<rect id="x17y0" class="rect" fill="rgb(0,0,0)" height="10" width="10" x="170" y="0"/>
	<rect id="x13y1" class="rect" fill="rgb(0,0,0)" height="10" width="10" x="130" y="10"/>
	<rect id="x14y1" class="rect" fill="rgb(252,252,252)" height="10" width="10" x="140" y="10"/>
	<rect id="x15y1" class="rect" fill="rgb(252,252,252)" height="10" width="10" x="150" y="10"/>
	<rect id="x16y1" class="rect" fill="rgb(252,252,252)" height="10" width="10" x="160" y="10"/>
	<rect id="x17y1" class="rect" fill="rgb(252,252,252)" height="10" width="10" x="170" y="10"/>
	<rect id="x18y1" class="rect" fill="rgb(0,0,0)" height="10" width="10" x="180" y="10"/>
	<rect id="x11y2" class="rect" fill="rgb(0,0,0)" height="10" width="10" x="110" y="20"/>
	<rect id="x12y2" class="rect" fill="rgb(0,0,0)" height="10" width="10" x="120" y="20"/>
	<rect id="x13y2" class="rect" fill="rgb(252,252,252)" height="10" width="10" x="130" y="20"/>
	<rect id="x14y2" class="rect" fill="rgb(252,252,252)" height="10" width="10" x="140" y="20"/>
	<rect id="x15y2" class="rect" fill="rgb(252,252,252)" height="10" width="10" x="150" y="20"/>
	<rect id="x16y2" class="rect" fill="rgb(252,252,252)" height="10" width="10" x="160" y="20"/>
	<rect id="x17y2" class="rect" fill="rgb(252,252,252)" height="10" width="10" x="170" y="20"/>
	<rect id="x18y2" class="rect" fill="rgb(252,252,252)" height="10" width="10" x="180" y="20"/>
	<rect id="x19y2" class="rect" fill="rgb(0,0,0)" height="10" width="10" x="190" y="20"/>
	<rect id="x10y3" class="rect" fill="rgb(0,0,0)" height="10" width="10" x="100" y="30"/>
	<rect id="x11y3" class="rect" fill="rgb(252,252,252)" height="10" width="10" x="110" y="30"/>
	<rect id="x12y3" class="rect" fill="rgb(252,252,252)" height="10" width="10" x="120" y="30"/>
	<rect id="x13y3" class="rect" fill="rgb(252,252,252)" height="10" width="10" x="130" y="30"/>
	<rect id="x14y3" class="rect" fill="rgb(252,252,252)" height="10" width="10" x="140" y="30"/>
	<rect id="x15y3" class="rect" fill="rgb(252,252,252)" height="10" width="10" x="150" y="30"/>
	<rect id="x16y3" class="rect" fill="rgb(252,252,252)" height="10" width="10" x="160" y="30"/>
	<rect id="x17y3" class="rect" fill="rgb(252,252,252)" height="10" width="10" x="170" y="30"/>
	<rect id="x18y3" class="rect" fill="rgb(252,252,252)" height="10" width="10" x="180" y="30"/>
	<rect id="x19y3" class="rect" fill="rgb(0,0,0)" height="10" width="10" x="190" y="30"/>
	<rect id="x21y3" class="rect" fill="rgb(0,0,0)" height="10" width="10" x="210" y="30"/>
	<rect id="x10y4" class="rect" fill="rgb(0,0,0)" height="10" width="10" x="100" y="40"/>
	<rect id="x11y4" class="rect" fill="rgb(252,252,252)" height="10" width="10" x="110" y="40"/>
	<rect id="x12y4" class="rect" fill="rgb(252,252,252)" height="10" width="10" x="120" y="40"/>
	<rect id="x13y4" class="rect" fill="rgb(252,252,252)" height="10" width="10" x="130" y="40"/>
	<rect id="x14y4" class="rect" fill="rgb(252,252,252)" height="10" width="10" x="140" y="40"/>
	<rect id="x15y4" class="rect" fill="rgb(252,252,252)" height="10" width="10" x="150" y="40"/>
	<rect id="x16y4" class="rect" fill="rgb(252,252,252)" height="10" width="10" x="160" y="40"/>
	<rect id="x17y4" class="rect" fill="rgb(252,252,252)" height="10" width="10" x="170" y="40"/>
	<rect id="x18y4" class="rect" fill="rgb(252,252,252)" height="10" width="10" x="180" y="40"/>
	<rect id="x19y4" class="rect" fill="rgb(252,252,252)" height="10" width="10" x="190" y="40"/>
	<rect id="x20y4" class="rect" fill="rgb(0,0,0)" height="10" width="10" x="200" y="40"/>
	<rect id="x21y4" class="rect" fill="rgb(252,252,252)" height="10" width="10" x="210" y="40"/>
	<rect id="x22y4" class="rect" fill="rgb(0,0,0)" height="10" width="10" x="220" y="40"/>
	<rect id="x10y5" class="rect" fill="rgb(0,0,0)" height="10" width="10" x="100" y="50"/>
	<rect id="x11y5" class="rect" fill="rgb(252,252,252)" height="10" width="10" x="110" y="50"/>
	<rect id="x12y5" class="rect" fill="rgb(252,252,252)" height="10" width="10" x="120" y="50"/>
	<rect id="x13y5" class="rect" fill="rgb(252,252,252)" height="10" width="10" x="130" y="50"/>
	<rect id="x14y5" class="rect" fill="rgb(252,252,252)" height="10" width="10" x="140" y="50"/>
	<rect id="x15y5" class="rect" fill="rgb(252,252,252)" height="10" width="10" x="150" y="50"/>
	<rect id="x16y5" class="rect" fill="rgb(252,252,252)" height="10" width="10" x="160" y="50"/>
	<rect id="x17y5" class="rect" fill="rgb(60,188,252)" height="10" width="10" x="170" y="50"/>
	<rect id="x18y5" class="rect" fill="rgb(252,252,252)" height="10" width="10" x="180" y="50"/>
	<rect id="x19y5" class="rect" fill="rgb(252,252,252)" height="10" width="10" x="190" y="50"/>
	<rect id="x20y5" class="rect" fill="rgb(252,252,252)" height="10" width="10" x="200" y="50"/>
	<rect id="x21y5" class="rect" fill="rgb(252,252,252)" height="10" width="10" x="210" y="50"/>
	<rect id="x22y5" class="rect" fill="rgb(252,252,252)" height="10" width="10" x="220" y="50"/>
	<rect id="x23y5" class="rect" fill="rgb(0,0,0)" height="10" width="10" x="230" y="50"/>
	<rect id="x9y6" class="rect" fill="rgb(0,0,0)" height="10" width="10" x="90" y="60"/>
	<rect id="x10y6" class="rect" fill="rgb(252,252,252)" height="10" width="10" x="100" y="60"/>
	<rect id="x11y6" class="rect" fill="rgb(252,252,252)" height="10" width="10" x="110" y="60"/>
	<rect id="x12y6" class="rect" fill="rgb(252,252,252)" height="10" width="10" x="120" y="60"/>
	<rect id="x13y6" class="rect" fill="rgb(60,188,252)" height="10" width="10" x="130" y="60"/>
	<rect id="x14y6" class="rect" fill="rgb(60,188,252)" height="10" width="10" x="140" y="60"/>
	<rect id="x15y6" class="rect" fill="rgb(252,252,252)" height="10" width="10" x="150" y="60"/>
	<rect id="x16y6" class="rect" fill="rgb(252,252,252)" height="10" width="10" x="160" y="60"/>
	<rect id="x17y6" class="rect" fill="rgb(252,252,252)" height="10" width="10" x="170" y="60"/>
	<rect id="x18y6" class="rect" fill="rgb(60,188,252)" height="10" width="10" x="180" y="60"/>
	<rect id="x19y6" class="rect" fill="rgb(252,252,252)" height="10" width="10" x="190" y="60"/>
	<rect id="x20y6" class="rect" fill="rgb(252,252,252)" height="10" width="10" x="200" y="60"/>
	<rect id="x21y6" class="rect" fill="rgb(252,252,252)" height="10" width="10" x="210" y="60"/>
	<rect id="x22y6" class="rect" fill="rgb(252,252,252)" height="10" width="10" x="220" y="60"/>
	<rect id="x23y6" class="rect" fill="rgb(0,0,0)" height="10" width="10" x="230" y="60"/>
	<rect id="x8y7" class="rect" fill="rgb(0,0,0)" height="10" width="10" x="80" y="70"/>
	<rect id="x9y7" class="rect" fill="rgb(252,252,252)" height="10" width="10" x="90" y="70"/>
	<rect id="x10y7" class="rect" fill="rgb(252,252,252)" height="10" width="10" x="100" y="70"/>
	<rect id="x11y7" class="rect" fill="rgb(252,252,252)" height="10" width="10" x="110" y="70"/>
	<rect id="x12y7" class="rect" fill="rgb(60,188,252)" height="10" width="10" x="120" y="70"/>
	<rect id="x13y7" class="rect" fill="rgb(252,252,252)" height="10" width="10" x="130" y="70"/>
	<rect id="x14y7" class="rect" fill="rgb(252,252,252)" height="10" width="10" x="140" y="70"/>
	<rect id="x15y7" class="rect" fill="rgb(252,252,252)" height="10" width="10" x="150" y="70"/>
	<rect id="x16y7" class="rect" fill="rgb(252,252,252)" height="10" width="10" x="160" y="70"/>
	<rect id="x17y7" class="rect" fill="rgb(252,252,252)" height="10" width="10" x="170" y="70"/>
	<rect id="x18y7" class="rect" fill="rgb(252,252,252)" height="10" width="10" x="180" y="70"/>
	<rect id="x19y7" class="rect" fill="rgb(252,252,252)" height="10" width="10" x="190" y="70"/>
	<rect id="x20y7" class="rect" fill="rgb(252,252,252)" height="10" width="10" x="200" y="70"/>
	<rect id="x21y7" class="rect" fill="rgb(252,252,252)" height="10" width="10" x="210" y="70"/>
	<rect id="x22y7" class="rect" fill="rgb(252,252,252)" height="10" width="10" x="220" y="70"/>
	<rect id="x23y7" class="rect" fill="rgb(0,0,0)" height="10" width="10" x="230" y="70"/>
	<rect id="x5y8" class="rect" fill="rgb(0,0,0)" height="10" width="10" x="50" y="80"/>
	<rect id="x6y8" class="rect" fill="rgb(0,0,0)" height="10" width="10" x="60" y="80"/>
	<rect id="x7y8" class="rect" fill="rgb(0,0,0)" height="10" width="10" x="70" y="80"/>
	<rect id="x8y8" class="rect" fill="rgb(252,252,252)" height="10" width="10" x="80" y="80"/>
	<rect id="x9y8" class="rect" fill="rgb(252,252,252)" height="10" width="10" x="90" y="80"/>
	<rect id="x10y8" class="rect" fill="rgb(252,252,252)" height="10" width="10" x="100" y="80"/>
	<rect id="x11y8" class="rect" fill="rgb(252,252,252)" height="10" width="10" x="110" y="80"/>
	<rect id="x12y8" class="rect" fill="rgb(252,252,252)" height="10" width="10" x="120" y="80"/>
	<rect id="x13y8" class="rect" fill="rgb(252,252,252)" height="10" width="10" x="130" y="80"/>
	<rect id="x14y8" class="rect" fill="rgb(252,252,252)" height="10" width="10" x="140" y="80"/>
	<rect id="x15y8" class="rect" fill="rgb(252,252,252)" height="10" width="10" x="150" y="80"/>
	<rect id="x16y8" class="rect" fill="rgb(252,252,252)" height="10" width="10" x="160" y="80"/>
	<rect id="x17y8" class="rect" fill="rgb(252,252,252)" height="10" width="10" x="170" y="80"/>
	<rect id="x18y8" class="rect" fill="rgb(252,252,252)" height="10" width="10" x="180" y="80"/>
	<rect id="x19y8" class="rect" fill="rgb(252,252,252)" height="10" width="10" x="190" y="80"/>
	<rect id="x20y8" class="rect" fill="rgb(252,252,252)" height="10" width="10" x="200" y="80"/>
	<rect id="x21y8" class="rect" fill="rgb(252,252,252)" height="10" width="10" x="210" y="80"/>
	<rect id="x22y8" class="rect" fill="rgb(252,252,252)" height="10" width="10" x="220" y="80"/>
	<rect id="x23y8" class="rect" fill="rgb(252,252,252)" height="10" width="10" x="230" y="80"/>
	<rect id="x24y8" class="rect" fill="rgb(0,0,0)" height="10" width="10" x="240" y="80"/>
	<rect id="x27y8" class="rect" fill="rgb(0,0,0)" height="10" width="10" x="270" y="80"/>
	<rect id="x4y9" class="rect" fill="rgb(0,0,0)" height="10" width="10" x="40" y="90"/>
	<rect id="x5y9" class="rect" fill="rgb(252,252,252)" height="10" width="10" x="50" y="90"/>
	<rect id="x6y9" class="rect" fill="rgb(252,252,252)" height="10" width="10" x="60" y="90"/>
	<rect id="x7y9" class="rect" fill="rgb(252,252,252)" height="10" width="10" x="70" y="90"/>
	<rect id="x8y9" class="rect" fill="rgb(252,252,252)" height="10" width="10" x="80" y="90"/>
	<rect id="x9y9" class="rect" fill="rgb(252,252,252)" height="10" width="10" x="90" y="90"/>
	<rect id="x10y9" class="rect" fill="rgb(252,252,252)" height="10" width="10" x="100" y="90"/>
	<rect id="x11y9" class="rect" fill="rgb(252,252,252)" height="10" width="10" x="110" y="90"/>
	<rect id="x12y9" class="rect" fill="rgb(252,252,252)" height="10" width="10" x="120" y="90"/>
	<rect id="x13y9" class="rect" fill="rgb(252,252,252)" height="10" width="10" x="130" y="90"/>
	<rect id="x14y9" class="rect" fill="rgb(252,252,252)" height="10" width="10" x="140" y="90"/>
	<rect id="x15y9" class="rect" fill="rgb(252,252,252)" height="10" width="10" x="150" y="90"/>
	<rect id="x16y9" class="rect" fill="rgb(252,252,252)" height="10" width="10" x="160" y="90"/>
	<rect id="x17y9" class="rect" fill="rgb(252,252,252)" height="10" width="10" x="170" y="90"/>
	<rect id="x18y9" class="rect" fill="rgb(252,252,252)" height="10" width="10" x="180" y="90"/>
	<rect id="x19y9" class="rect" fill="rgb(252,252,252)" height="10" width="10" x="190" y="90"/>
	<rect id="x20y9" class="rect" fill="rgb(252,252,252)" height="10" width="10" x="200" y="90"/>
	<rect id="x21y9" class="rect" fill="rgb(252,252,252)" height="10" width="10" x="210" y="90"/>
	<rect id="x22y9" class="rect" fill="rgb(252,252,252)" height="10" width="10" x="220" y="90"/>
	<rect id="x23y9" class="rect" fill="rgb(252,252,252)" height="10" width="10" x="230" y="90"/>
	<rect id="x24y9" class="rect" fill="rgb(0,0,0)" height="10" width="10" x="240" y="90"/>
	<rect id="x26y9" class="rect" fill="rgb(0,0,0)" height="10" width="10" x="260" y="90"/>
	<rect id="x27y9" class="rect" fill="rgb(252,252,252)" height="10" width="10" x="270" y="90"/>
	<rect id="x28y9" class="rect" fill="rgb(0,0,0)" height="10" width="10" x="280" y="90"/>
	<rect id="x3y10" class="rect" fill="rgb(0,0,0)" height="10" width="10" x="30" y="100"/>
	<rect id="x4y10" class="rect" fill="rgb(252,252,252)" height="10" width="10" x="40" y="100"/>
	<rect id="x5y10" class="rect" fill="rgb(252,252,252)" height="10" width="10" x="50" y="100"/>
	<rect id="x6y10" class="rect" fill="rgb(252,252,252)" height="10" width="10" x="60" y="100"/>
	<rect id="x7y10" class="rect" fill="rgb(252,252,252)" height="10" width="10" x="70" y="100"/>
	<rect id="x8y10" class="rect" fill="rgb(252,252,252)" height="10" width="10" x="80" y="100"/>
	<rect id="x9y10" class="rect" fill="rgb(252,252,252)" height="10" width="10" x="90" y="100"/>
	<rect id="x10y10" class="rect" fill="rgb(252,252,252)" height="10" width="10" x="100" y="100"/>
	<rect id="x11y10" class="rect" fill="rgb(252,252,252)" height="10" width="10" x="110" y="100"/>
	<rect id="x12y10" class="rect" fill="rgb(252,252,252)" height="10" width="10" x="120" y="100"/>
	<rect id="x13y10" class="rect" fill="rgb(252,252,252)" height="10" width="10" x="130" y="100"/>
	<rect id="x14y10" class="rect" fill="rgb(252,252,252)" height="10" width="10" x="140" y="100"/>
	<rect id="x15y10" class="rect" fill="rgb(252,252,252)" height="10" width="10" x="150" y="100"/>
	<rect id="x16y10" class="rect" fill="rgb(252,252,252)" height="10" width="10" x="160" y="100"/>
	<rect id="x17y10" class="rect" fill="rgb(252,252,252)" height="10" width="10" x="170" y="100"/>
	<rect id="x18y10" class="rect" fill="rgb(252,252,252)" height="10" width="10" x="180" y="100"/>
	<rect id="x19y10" class="rect" fill="rgb(252,252,252)" height="10" width="10" x="190" y="100"/>
	<rect id="x20y10" class="rect" fill="rgb(252,252,252)" height="10" width="10" x="200" y="100"/>
	<rect id="x21y10" class="rect" fill="rgb(252,252,252)" height="10" width="10" x="210" y="100"/>
	<rect id="x22y10" class="rect" fill="rgb(252,252,252)" height="10" width="10" x="220" y="100"/>
	<rect id="x23y10" class="rect" fill="rgb(252,252,252)" height="10" width="10" x="230" y="100"/>
	<rect id="x24y10" class="rect" fill="rgb(252,252,252)" height="10" width="10" x="240" y="100"/>
	<rect id="x25y10" class="rect" fill="rgb(0,0,0)" height="10" width="10" x="250" y="100"/>
	<rect id="x26y10" class="rect" fill="rgb(252,252,252)" height="10" width="10" x="260" y="100"/>
	<rect id="x27y10" class="rect" fill="rgb(252,252,252)" height="10" width="10" x="270" y="100"/>
	<rect id="x28y10" class="rect" fill="rgb(0,0,0)" height="10" width="10" x="280" y="100"/>
	<rect id="x3y11" class="rect" fill="rgb(252,252,252)" height="10" width="10" x="30" y="110"/>
	<rect id="x4y11" class="rect" fill="rgb(252,252,252)" height="10" width="10" x="40" y="110"/>
	<rect id="x5y11" class="rect" fill="rgb(252,252,252)" height="10" width="10" x="50" y="110"/>
	<rect id="x6y11" class="rect" fill="rgb(252,252,252)" height="10" width="10" x="60" y="110"/>
	<rect id="x7y11" class="rect" fill="rgb(252,252,252)" height="10" width="10" x="70" y="110"/>
	<rect id="x8y11" class="rect" fill="rgb(252,252,252)" height="10" width="10" x="80" y="110"/>
	<rect id="x9y11" class="rect" fill="rgb(252,252,252)" height="10" width="10" x="90" y="110"/>
	<rect id="x10y11" class="rect" fill="rgb(252,252,252)" height="10" width="10" x="100" y="110"/>
	<rect id="x11y11" class="rect" fill="rgb(252,252,252)" height="10" width="10" x="110" y="110"/>
	<rect id="x12y11" class="rect" fill="rgb(252,252,252)" height="10" width="10" x="120" y="110"/>
	<rect id="x13y11" class="rect" fill="rgb(252,252,252)" height="10" width="10" x="130" y="110"/>
	<rect id="x14y11" class="rect" fill="rgb(252,252,252)" height="10" width="10" x="140" y="110"/>
	<rect id="x15y11" class="rect" fill="rgb(252,252,252)" height="10" width="10" x="150" y="110"/>
	<rect id="x16y11" class="rect" fill="rgb(252,252,252)" height="10" width="10" x="160" y="110"/>
	<rect id="x17y11" class="rect" fill="rgb(252,252,252)" height="10" width="10" x="170" y="110"/>
	<rect id="x18y11" class="rect" fill="rgb(252,252,252)" height="10" width="10" x="180" y="110"/>
	<rect id="x19y11" class="rect" fill="rgb(252,252,252)" height="10" width="10" x="190" y="110"/>
	<rect id="x20y11" class="rect" fill="rgb(252,252,252)" height="10" width="10" x="200" y="110"/>
	<rect id="x21y11" class="rect" fill="rgb(252,252,252)" height="10" width="10" x="210" y="110"/>
	<rect id="x22y11" class="rect" fill="rgb(252,252,252)" height="10" width="10" x="220" y="110"/>
	<rect id="x23y11" class="rect" fill="rgb(252,252,252)" height="10" width="10" x="230" y="110"/>
	<rect id="x24y11" class="rect" fill="rgb(252,252,252)" height="10" width="10" x="240" y="110"/>
	<rect id="x25y11" class="rect" fill="rgb(252,252,252)" height="10" width="10" x="250" y="110"/>
	<rect id="x26y11" class="rect" fill="rgb(252,252,252)" height="10" width="10" x="260" y="110"/>
	<rect id="x27y11" class="rect" fill="rgb(252,252,252)" height="10" width="10" x="270" y="110"/>
	<rect id="x28y11" class="rect" fill="rgb(0,0,0)" height="10" width="10" x="280" y="110"/>
	<rect id="x30y11" class="rect" fill="rgb(0,0,0)" height="10" width="10" x="300" y="110"/>
	<rect id="x1y12" class="rect" fill="rgb(0,0,0)" height="10" width="10" x="10" y="120"/>
	<rect id="x2y12" class="rect" fill="rgb(0,0,0)" height="10" width="10" x="20" y="120"/>
	<rect id="x3y12" class="rect" fill="rgb(252,252,252)" height="10" width="10" x="30" y="120"/>
	<rect id="x4y12" class="rect" fill="rgb(252,252,252)" height="10" width="10" x="40" y="120"/>
	<rect id="x5y12" class="rect" fill="rgb(252,252,252)" height="10" width="10" x="50" y="120"/>
	<rect id="x6y12" class="rect" fill="rgb(252,252,252)" height="10" width="10" x="60" y="120"/>
	<rect id="x7y12" class="rect" fill="rgb(252,252,252)" height="10" width="10" x="70" y="120"/>
	<rect id="x8y12" class="rect" fill="rgb(252,252,252)" height="10" width="10" x="80" y="120"/>
	<rect id="x9y12" class="rect" fill="rgb(252,252,252)" height="10" width="10" x="90" y="120"/>
	<rect id="x10y12" class="rect" fill="rgb(252,252,252)" height="10" width="10" x="100" y="120"/>
	<rect id="x11y12" class="rect" fill="rgb(252,252,252)" height="10" width="10" x="110" y="120"/>
	<rect id="x12y12" class="rect" fill="rgb(252,252,252)" height="10" width="10" x="120" y="120"/>
	<rect id="x13y12" class="rect" fill="rgb(252,252,252)" height="10" width="10" x="130" y="120"/>
	<rect id="x14y12" class="rect" fill="rgb(252,252,252)" height="10" width="10" x="140" y="120"/>
	<rect id="x15y12" class="rect" fill="rgb(252,252,252)" height="10" width="10" x="150" y="120"/>
	<rect id="x16y12" class="rect" fill="rgb(252,252,252)" height="10" width="10" x="160" y="120"/>
	<rect id="x17y12" class="rect" fill="rgb(252,252,252)" height="10" width="10" x="170" y="120"/>
	<rect id="x18y12" class="rect" fill="rgb(252,252,252)" height="10" width="10" x="180" y="120"/>
	<rect id="x19y12" class="rect" fill="rgb(252,252,252)" height="10" width="10" x="190" y="120"/>
	<rect id="x20y12" class="rect" fill="rgb(252,252,252)" height="10" width="10" x="200" y="120"/>
	<rect id="x21y12" class="rect" fill="rgb(252,252,252)" height="10" width="10" x="210" y="120"/>
	<rect id="x22y12" class="rect" fill="rgb(252,252,252)" height="10" width="10" x="220" y="120"/>
	<rect id="x23y12" class="rect" fill="rgb(252,252,252)" height="10" width="10" x="230" y="120"/>
	<rect id="x24y12" class="rect" fill="rgb(252,252,252)" height="10" width="10" x="240" y="120"/>
	<rect id="x25y12" class="rect" fill="rgb(252,252,252)" height="10" width="10" x="250" y="120"/>
	<rect id="x26y12" class="rect" fill="rgb(252,252,252)" height="10" width="10" x="260" y="120"/>
	<rect id="x27y12" class="rect" fill="rgb(252,252,252)" height="10" width="10" x="270" y="120"/>
	<rect id="x28y12" class="rect" fill="rgb(252,252,252)" height="10" width="10" x="280" y="120"/>
	<rect id="x29y12" class="rect" fill="rgb(0,0,0)" height="10" width="10" x="290" y="120"/>
	<rect id="x30y12" class="rect" fill="rgb(252,252,252)" height="10" width="10" x="300" y="120"/>
	<rect id="x31y12" class="rect" fill="rgb(0,0,0)" height="10" width="10" x="310" y="120"/>
	<rect id="x0y13" class="rect" fill="rgb(0,0,0)" height="10" width="10" x="0" y="130"/>
	<rect id="x1y13" class="rect" fill="rgb(252,252,252)" height="10" width="10" x="10" y="130"/>
	<rect id="x2y13" class="rect" fill="rgb(252,252,252)" height="10" width="10" x="20" y="130"/>
	<rect id="x3y13" class="rect" fill="rgb(252,252,252)" height="10" width="10" x="30" y="130"/>
	<rect id="x4y13" class="rect" fill="rgb(252,252,252)" height="10" width="10" x="40" y="130"/>
	<rect id="x5y13" class="rect" fill="rgb(252,252,252)" height="10" width="10" x="50" y="130"/>
	<rect id="x6y13" class="rect" fill="rgb(252,252,252)" height="10" width="10" x="60" y="130"/>
	<rect id="x7y13" class="rect" fill="rgb(252,252,252)" height="10" width="10" x="70" y="130"/>
	<rect id="x8y13" class="rect" fill="rgb(252,252,252)" height="10" width="10" x="80" y="130"/>
	<rect id="x9y13" class="rect" fill="rgb(252,252,252)" height="10" width="10" x="90" y="130"/>
	<rect id="x10y13" class="rect" fill="rgb(252,252,252)" height="10" width="10" x="100" y="130"/>
	<rect id="x11y13" class="rect" fill="rgb(252,252,252)" height="10" width="10" x="110" y="130"/>
	<rect id="x12y13" class="rect" fill="rgb(252,252,252)" height="10" width="10" x="120" y="130"/>
	<rect id="x13y13" class="rect" fill="rgb(252,252,252)" height="10" width="10" x="130" y="130"/>
	<rect id="x14y13" class="rect" fill="rgb(252,252,252)" height="10" width="10" x="140" y="130"/>
	<rect id="x15y13" class="rect" fill="rgb(252,252,252)" height="10" width="10" x="150" y="130"/>
	<rect id="x16y13" class="rect" fill="rgb(252,252,252)" height="10" width="10" x="160" y="130"/>
	<rect id="x17y13" class="rect" fill="rgb(252,252,252)" height="10" width="10" x="170" y="130"/>
	<rect id="x18y13" class="rect" fill="rgb(252,252,252)" height="10" width="10" x="180" y="130"/>
	<rect id="x19y13" class="rect" fill="rgb(252,252,252)" height="10" width="10" x="190" y="130"/>
	<rect id="x20y13" class="rect" fill="rgb(252,252,252)" height="10" width="10" x="200" y="130"/>
	<rect id="x21y13" class="rect" fill="rgb(252,252,252)" height="10" width="10" x="210" y="130"/>
	<rect id="x22y13" class="rect" fill="rgb(252,252,252)" height="10" width="10" x="220" y="130"/>
	<rect id="x23y13" class="rect" fill="rgb(252,252,252)" height="10" width="10" x="230" y="130"/>
	<rect id="x24y13" class="rect" fill="rgb(252,252,252)" height="10" width="10" x="240" y="130"/>
	<rect id="x25y13" class="rect" fill="rgb(252,252,252)" height="10" width="10" x="250" y="130"/>
	<rect id="x26y13" class="rect" fill="rgb(252,252,252)" height="10" width="10" x="260" y="130"/>
	<rect id="x27y13" class="rect" fill="rgb(252,252,252)" height="10" width="10" x="270" y="130"/>
	<rect id="x28y13" class="rect" fill="rgb(252,252,252)" height="10" width="10" x="280" y="130"/>
	<rect id="x29y13" class="rect" fill="rgb(252,252,252)" height="10" width="10" x="290" y="130"/>
	<rect id="x30y13" class="rect" fill="rgb(252,252,252)" height="10" width="10" x="300" y="130"/>
	<rect id="x31y13" class="rect" fill="rgb(0,0,0)" height="10" width="10" x="310" y="130"/>
	<rect id="x0y14" class="rect" fill="rgb(0,0,0)" height="10" width="10" x="0" y="140"/>
	<rect id="x1y14" class="rect" fill="rgb(252,252,252)" height="10" width="10" x="10" y="140"/>
	<rect id="x2y14" class="rect" fill="rgb(252,252,252)" height="10" width="10" x="20" y="140"/>
	<rect id="x3y14" class="rect" fill="rgb(252,252,252)" height="10" width="10" x="30" y="140"/>
	<rect id="x4y14" class="rect" fill="rgb(252,252,252)" height="10" width="10" x="40" y="140"/>
	<rect id="x5y14" class="rect" fill="rgb(252,252,252)" height="10" width="10" x="50" y="140"/>
	<rect id="x6y14" class="rect" fill="rgb(252,252,252)" height="10" width="10" x="60" y="140"/>
	<rect id="x7y14" class="rect" fill="rgb(252,252,252)" height="10" width="10" x="70" y="140"/>
	<rect id="x8y14" class="rect" fill="rgb(252,252,252)" height="10" width="10" x="80" y="140"/>
	<rect id="x9y14" class="rect" fill="rgb(252,252,252)" height="10" width="10" x="90" y="140"/>
	<rect id="x10y14" class="rect" fill="rgb(252,252,252)" height="10" width="10" x="100" y="140"/>
	<rect id="x11y14" class="rect" fill="rgb(252,252,252)" height="10" width="10" x="110" y="140"/>
	<rect id="x12y14" class="rect" fill="rgb(252,252,252)" height="10" width="10" x="120" y="140"/>
	<rect id="x13y14" class="rect" fill="rgb(252,252,252)" height="10" width="10" x="130" y="140"/>
	<rect id="x14y14" class="rect" fill="rgb(252,252,252)" height="10" width="10" x="140" y="140"/>
	<rect id="x15y14" class="rect" fill="rgb(252,252,252)" height="10" width="10" x="150" y="140"/>
	<rect id="x16y14" class="rect" fill="rgb(252,252,252)" height="10" width="10" x="160" y="140"/>
	<rect id="x17y14" class="rect" fill="rgb(252,252,252)" height="10" width="10" x="170" y="140"/>
	<rect id="x18y14" class="rect" fill="rgb(252,252,252)" height="10" width="10" x="180" y="140"/>
	<rect id="x19y14" class="rect" fill="rgb(252,252,252)" height="10" width="10" x="190" y="140"/>
	<rect id="x20y14" class="rect" fill="rgb(252,252,252)" height="10" width="10" x="200" y="140"/>
	<rect id="x21y14" class="rect" fill="rgb(252,252,252)" height="10" width="10" x="210" y="140"/>
	<rect id="x22y14" class="rect" fill="rgb(252,252,252)" height="10" width="10" x="220" y="140"/>
	<rect id="x23y14" class="rect" fill="rgb(252,252,252)" height="10" width="10" x="230" y="140"/>
	<rect id="x24y14" class="rect" fill="rgb(252,252,252)" height="10" width="10" x="240" y="140"/>
	<rect id="x25y14" class="rect" fill="rgb(252,252,252)" height="10" width="10" x="250" y="140"/>
	<rect id="x26y14" class="rect" fill="rgb(252,252,252)" height="10" width="10" x="260" y="140"/>
	<rect id="x27y14" class="rect" fill="rgb(252,252,252)" height="10" width="10" x="270" y="140"/>
	<rect id="x28y14" class="rect" fill="rgb(252,252,252)" height="10" width="10" x="280" y="140"/>
	<rect id="x29y14" class="rect" fill="rgb(252,252,252)" height="10" width="10" x="290" y="140"/>
	<rect id="x30y14" class="rect" fill="rgb(252,252,252)" height="10" width="10" x="300" y="140"/>
	<rect id="x31y14" class="rect" fill="rgb(0,0,0)" height="10" width="10" x="310" y="140"/>
	<rect id="x1y15" class="rect" fill="rgb(0,0,0)" height="10" width="10" x="10" y="150"/>
	<rect id="x2y15" class="rect" fill="rgb(252,252,252)" height="10" width="10" x="20" y="150"/>
	<rect id="x3y15" class="rect" fill="rgb(252,252,252)" height="10" width="10" x="30" y="150"/>
	<rect id="x4y15" class="rect" fill="rgb(252,252,252)" height="10" width="10" x="40" y="150"/>
	<rect id="x5y15" class="rect" fill="rgb(252,252,252)" height="10" width="10" x="50" y="150"/>
	<rect id="x6y15" class="rect" fill="rgb(252,252,252)" height="10" width="10" x="60" y="150"/>
	<rect id="x7y15" class="rect" fill="rgb(252,252,252)" height="10" width="10" x="70" y="150"/>
	<rect id="x8y15" class="rect" fill="rgb(252,252,252)" height="10" width="10" x="80" y="150"/>
	<rect id="x9y15" class="rect" fill="rgb(252,252,252)" height="10" width="10" x="90" y="150"/>
	<rect id="x10y15" class="rect" fill="rgb(252,252,252)" height="10" width="10" x="100" y="150"/>
	<rect id="x11y15" class="rect" fill="rgb(252,252,252)" height="10" width="10" x="110" y="150"/>
	<rect id="x12y15" class="rect" fill="rgb(252,252,252)" height="10" width="10" x="120" y="150"/>
	<rect id="x13y15" class="rect" fill="rgb(252,252,252)" height="10" width="10" x="130" y="150"/>
	<rect id="x14y15" class="rect" fill="rgb(252,252,252)" height="10" width="10" x="140" y="150"/>
	<rect id="x15y15" class="rect" fill="rgb(252,252,252)" height="10" width="10" x="150" y="150"/>
	<rect id="x16y15" class="rect" fill="rgb(252,252,252)" height="10" width="10" x="160" y="150"/>
	<rect id="x17y15" class="rect" fill="rgb(252,252,252)" height="10" width="10" x="170" y="150"/>
	<rect id="x18y15" class="rect" fill="rgb(252,252,252)" height="10" width="10" x="180" y="150"/>
	<rect id="x19y15" class="rect" fill="rgb(252,252,252)" height="10" width="10" x="190" y="150"/>
	<rect id="x20y15" class="rect" fill="rgb(252,252,252)" height="10" width="10" x="200" y="150"/>
	<rect id="x21y15" class="rect" fill="rgb(252,252,252)" height="10" width="10" x="210" y="150"/>
	<rect id="x22y15" class="rect" fill="rgb(252,252,252)" height="10" width="10" x="220" y="150"/>
	<rect id="x23y15" class="rect" fill="rgb(252,252,252)" height="10" width="10" x="230" y="150"/>
	<rect id="x24y15" class="rect" fill="rgb(252,252,252)" height="10" width="10" x="240" y="150"/>
	<rect id="x25y15" class="rect" fill="rgb(252,252,252)" height="10" width="10" x="250" y="150"/>
	<rect id="x26y15" class="rect" fill="rgb(252,252,252)" height="10" width="10" x="260" y="150"/>
	<rect id="x27y15" class="rect" fill="rgb(252,252,252)" height="10" width="10" x="270" y="150"/>
	<rect id="x28y15" class="rect" fill="rgb(252,252,252)" height="10" width="10" x="280" y="150"/>
	<rect id="x29y15" class="rect" fill="rgb(252,252,252)" height="10" width="10" x="290" y="150"/>
	<rect id="x30y15" class="rect" fill="rgb(0,0,0)" height="10" width="10" x="300" y="150"/>
	<rect id="x2y16" class="rect" fill="rgb(0,0,0)" height="10" width="10" x="20" y="160"/>
	<rect id="x3y16" class="rect" fill="rgb(252,252,252)" height="10" width="10" x="30" y="160"/>
	<rect id="x4y16" class="rect" fill="rgb(252,252,252)" height="10" width="10" x="40" y="160"/>
	<rect id="x5y16" class="rect" fill="rgb(60,188,252)" height="10" width="10" x="50" y="160"/>
	<rect id="x6y16" class="rect" fill="rgb(252,252,252)" height="10" width="10" x="60" y="160"/>
	<rect id="x7y16" class="rect" fill="rgb(252,252,252)" height="10" width="10" x="70" y="160"/>
	<rect id="x8y16" class="rect" fill="rgb(252,252,252)" height="10" width="10" x="80" y="160"/>
	<rect id="x9y16" class="rect" fill="rgb(252,252,252)" height="10" width="10" x="90" y="160"/>
	<rect id="x10y16" class="rect" fill="rgb(252,252,252)" height="10" width="10" x="100" y="160"/>
	<rect id="x11y16" class="rect" fill="rgb(252,252,252)" height="10" width="10" x="110" y="160"/>
	<rect id="x12y16" class="rect" fill="rgb(252,252,252)" height="10" width="10" x="120" y="160"/>
	<rect id="x13y16" class="rect" fill="rgb(252,252,252)" height="10" width="10" x="130" y="160"/>
	<rect id="x14y16" class="rect" fill="rgb(252,252,252)" height="10" width="10" x="140" y="160"/>
	<rect id="x15y16" class="rect" fill="rgb(252,252,252)" height="10" width="10" x="150" y="160"/>
	<rect id="x16y16" class="rect" fill="rgb(252,252,252)" height="10" width="10" x="160" y="160"/>
	<rect id="x17y16" class="rect" fill="rgb(60,188,252)" height="10" width="10" x="170" y="160"/>
	<rect id="x18y16" class="rect" fill="rgb(252,252,252)" height="10" width="10" x="180" y="160"/>
	<rect id="x19y16" class="rect" fill="rgb(252,252,252)" height="10" width="10" x="190" y="160"/>
	<rect id="x20y16" class="rect" fill="rgb(252,252,252)" height="10" width="10" x="200" y="160"/>
	<rect id="x21y16" class="rect" fill="rgb(252,252,252)" height="10" width="10" x="210" y="160"/>
	<rect id="x22y16" class="rect" fill="rgb(252,252,252)" height="10" width="10" x="220" y="160"/>
	<rect id="x23y16" class="rect" fill="rgb(252,252,252)" height="10" width="10" x="230" y="160"/>
	<rect id="x24y16" class="rect" fill="rgb(252,252,252)" height="10" width="10" x="240" y="160"/>
	<rect id="x25y16" class="rect" fill="rgb(252,252,252)" height="10" width="10" x="250" y="160"/>
	<rect id="x26y16" class="rect" fill="rgb(252,252,252)" height="10" width="10" x="260" y="160"/>
	<rect id="x27y16" class="rect" fill="rgb(252,252,252)" height="10" width="10" x="270" y="160"/>
	<rect id="x28y16" class="rect" fill="rgb(252,252,252)" height="10" width="10" x="280" y="160"/>
	<rect id="x29y16" class="rect" fill="rgb(0,0,0)" height="10" width="10" x="290" y="160"/>
	<rect id="x3y17" class="rect" fill="rgb(0,0,0)" height="10" width="10" x="30" y="170"/>
	<rect id="x4y17" class="rect" fill="rgb(252,252,252)" height="10" width="10" x="40" y="170"/>
	<rect id="x5y17" class="rect" fill="rgb(252,252,252)" height="10" width="10" x="50" y="170"/>
	<rect id="x6y17" class="rect" fill="rgb(60,188,252)" height="10" width="10" x="60" y="170"/>
	<rect id="x7y17" class="rect" fill="rgb(252,252,252)" height="10" width="10" x="70" y="170"/>
	<rect id="x8y17" class="rect" fill="rgb(252,252,252)" height="10" width="10" x="80" y="170"/>
	<rect id="x9y17" class="rect" fill="rgb(60,188,252)" height="10" width="10" x="90" y="170"/>
	<rect id="x10y17" class="rect" fill="rgb(252,252,252)" height="10" width="10" x="100" y="170"/>
	<rect id="x11y17" class="rect" fill="rgb(252,252,252)" height="10" width="10" x="110" y="170"/>
	<rect id="x12y17" class="rect" fill="rgb(252,252,252)" height="10" width="10" x="120" y="170"/>
	<rect id="x13y17" class="rect" fill="rgb(252,252,252)" height="10" width="10" x="130" y="170"/>
	<rect id="x14y17" class="rect" fill="rgb(252,252,252)" height="10" width="10" x="140" y="170"/>
	<rect id="x15y17" class="rect" fill="rgb(252,252,252)" height="10" width="10" x="150" y="170"/>
	<rect id="x16y17" class="rect" fill="rgb(60,188,252)" height="10" width="10" x="160" y="170"/>
	<rect id="x17y17" class="rect" fill="rgb(252,252,252)" height="10" width="10" x="170" y="170"/>
	<rect id="x18y17" class="rect" fill="rgb(252,252,252)" height="10" width="10" x="180" y="170"/>
	<rect id="x19y17" class="rect" fill="rgb(252,252,252)" height="10" width="10" x="190" y="170"/>
	<rect id="x20y17" class="rect" fill="rgb(252,252,252)" height="10" width="10" x="200" y="170"/>
	<rect id="x21y17" class="rect" fill="rgb(252,252,252)" height="10" width="10" x="210" y="170"/>
	<rect id="x22y17" class="rect" fill="rgb(252,252,252)" height="10" width="10" x="220" y="170"/>
	<rect id="x23y17" class="rect" fill="rgb(252,252,252)" height="10" width="10" x="230" y="170"/>
	<rect id="x24y17" class="rect" fill="rgb(252,252,252)" height="10" width="10" x="240" y="170"/>
	<rect id="x25y17" class="rect" fill="rgb(252,252,252)" height="10" width="10" x="250" y="170"/>
	<rect id="x26y17" class="rect" fill="rgb(252,252,252)" height="10" width="10" x="260" y="170"/>
	<rect id="x27y17" class="rect" fill="rgb(252,252,252)" height="10" width="10" x="270" y="170"/>
	<rect id="x28y17" class="rect" fill="rgb(252,252,252)" height="10" width="10" x="280" y="170"/>
	<rect id="x29y17" class="rect" fill="rgb(252,252,252)" height="10" width="10" x="290" y="170"/>
	<rect id="x30y17" class="rect" fill="rgb(0,0,0)" height="10" width="10" x="300" y="170"/>
	<rect id="x4y18" class="rect" fill="rgb(0,0,0)" height="10" width="10" x="40" y="180"/>
	<rect id="x5y18" class="rect" fill="rgb(252,252,252)" height="10" width="10" x="50" y="180"/>
	<rect id="x6y18" class="rect" fill="rgb(252,252,252)" height="10" width="10" x="60" y="180"/>
	<rect id="x7y18" class="rect" fill="rgb(60,188,252)" height="10" width="10" x="70" y="180"/>
	<rect id="x8y18" class="rect" fill="rgb(60,188,252)" height="10" width="10" x="80" y="180"/>
	<rect id="x9y18" class="rect" fill="rgb(60,188,252)" height="10" width="10" x="90" y="180"/>
	<rect id="x10y18" class="rect" fill="rgb(60,188,252)" height="10" width="10" x="100" y="180"/>
	<rect id="x11y18" class="rect" fill="rgb(252,252,252)" height="10" width="10" x="110" y="180"/>
	<rect id="x12y18" class="rect" fill="rgb(252,252,252)" height="10" width="10" x="120" y="180"/>
	<rect id="x13y18" class="rect" fill="rgb(252,252,252)" height="10" width="10" x="130" y="180"/>
	<rect id="x14y18" class="rect" fill="rgb(60,188,252)" height="10" width="10" x="140" y="180"/>
	<rect id="x15y18" class="rect" fill="rgb(60,188,252)" height="10" width="10" x="150" y="180"/>
	<rect id="x16y18" class="rect" fill="rgb(60,188,252)" height="10" width="10" x="160" y="180"/>
	<rect id="x17y18" class="rect" fill="rgb(60,188,252)" height="10" width="10" x="170" y="180"/>
	<rect id="x18y18" class="rect" fill="rgb(252,252,252)" height="10" width="10" x="180" y="180"/>
	<rect id="x19y18" class="rect" fill="rgb(252,252,252)" height="10" width="10" x="190" y="180"/>
	<rect id="x20y18" class="rect" fill="rgb(252,252,252)" height="10" width="10" x="200" y="180"/>
	<rect id="x21y18" class="rect" fill="rgb(252,252,252)" height="10" width="10" x="210" y="180"/>
	<rect id="x22y18" class="rect" fill="rgb(60,188,252)" height="10" width="10" x="220" y="180"/>
	<rect id="x23y18" class="rect" fill="rgb(252,252,252)" height="10" width="10" x="230" y="180"/>
	<rect id="x24y18" class="rect" fill="rgb(252,252,252)" height="10" width="10" x="240" y="180"/>
	<rect id="x25y18" class="rect" fill="rgb(252,252,252)" height="10" width="10" x="250" y="180"/>
	<rect id="x26y18" class="rect" fill="rgb(252,252,252)" height="10" width="10" x="260" y="180"/>
	<rect id="x27y18" class="rect" fill="rgb(252,252,252)" height="10" width="10" x="270" y="180"/>
	<rect id="x28y18" class="rect" fill="rgb(252,252,252)" height="10" width="10" x="280" y="180"/>
	<rect id="x29y18" class="rect" fill="rgb(252,252,252)" height="10" width="10" x="290" y="180"/>
	<rect id="x30y18" class="rect" fill="rgb(252,252,252)" height="10" width="10" x="300" y="180"/>
	<rect id="x31y18" class="rect" fill="rgb(0,0,0)" height="10" width="10" x="310" y="180"/>
	<rect id="x4y19" class="rect" fill="rgb(0,0,0)" height="10" width="10" x="40" y="190"/>
	<rect id="x5y19" class="rect" fill="rgb(252,252,252)" height="10" width="10" x="50" y="190"/>
	<rect id="x6y19" class="rect" fill="rgb(252,252,252)" height="10" width="10" x="60" y="190"/>
	<rect id="x7y19" class="rect" fill="rgb(252,252,252)" height="10" width="10" x="70" y="190"/>
	<rect id="x8y19" class="rect" fill="rgb(252,252,252)" height="10" width="10" x="80" y="190"/>
	<rect id="x9y19" class="rect" fill="rgb(252,252,252)" height="10" width="10" x="90" y="190"/>
	<rect id="x10y19" class="rect" fill="rgb(60,188,252)" height="10" width="10" x="100" y="190"/>
	<rect id="x11y19" class="rect" fill="rgb(60,188,252)" height="10" width="10" x="110" y="190"/>
	<rect id="x12y19" class="rect" fill="rgb(60,188,252)" height="10" width="10" x="120" y="190"/>
	<rect id="x13y19" class="rect" fill="rgb(60,188,252)" height="10" width="10" x="130" y="190"/>
	<rect id="x14y19" class="rect" fill="rgb(60,188,252)" height="10" width="10" x="140" y="190"/>
	<rect id="x15y19" class="rect" fill="rgb(60,188,252)" height="10" width="10" x="150" y="190"/>
	<rect id="x16y19" class="rect" fill="rgb(252,252,252)" height="10" width="10" x="160" y="190"/>
	<rect id="x17y19" class="rect" fill="rgb(60,188,252)" height="10" width="10" x="170" y="190"/>
	<rect id="x18y19" class="rect" fill="rgb(60,188,252)" height="10" width="10" x="180" y="190"/>
	<rect id="x19y19" class="rect" fill="rgb(60,188,252)" height="10" width="10" x="190" y="190"/>
	<rect id="x20y19" class="rect" fill="rgb(60,188,252)" height="10" width="10" x="200" y="190"/>
	<rect id="x21y19" class="rect" fill="rgb(60,188,252)" height="10" width="10" x="210" y="190"/>
	<rect id="x22y19" class="rect" fill="rgb(252,252,252)" height="10" width="10" x="220" y="190"/>
	<rect id="x23y19" class="rect" fill="rgb(252,252,252)" height="10" width="10" x="230" y="190"/>
	<rect id="x24y19" class="rect" fill="rgb(252,252,252)" height="10" width="10" x="240" y="190"/>
	<rect id="x25y19" class="rect" fill="rgb(252,252,252)" height="10" width="10" x="250" y="190"/>
	<rect id="x26y19" class="rect" fill="rgb(252,252,252)" height="10" width="10" x="260" y="190"/>
	<rect id="x27y19" class="rect" fill="rgb(252,252,252)" height="10" width="10" x="270" y="190"/>
	<rect id="x28y19" class="rect" fill="rgb(252,252,252)" height="10" width="10" x="280" y="190"/>
	<rect id="x29y19" class="rect" fill="rgb(252,252,252)" height="10" width="10" x="290" y="190"/>
	<rect id="x30y19" class="rect" fill="rgb(252,252,252)" height="10" width="10" x="300" y="190"/>
	<rect id="x5y20" class="rect" fill="rgb(0,0,0)" height="10" width="10" x="50" y="200"/>
	<rect id="x6y20" class="rect" fill="rgb(0,0,0)" height="10" width="10" x="60" y="200"/>
	<rect id="x7y20" class="rect" fill="rgb(0,0,0)" height="10" width="10" x="70" y="200"/>
	<rect id="x8y20" class="rect" fill="rgb(252,252,252)" height="10" width="10" x="80" y="200"/>
	<rect id="x9y20" class="rect" fill="rgb(252,252,252)" height="10" width="10" x="90" y="200"/>
	<rect id="x10y20" class="rect" fill="rgb(252,252,252)" height="10" width="10" x="100" y="200"/>
	<rect id="x11y20" class="rect" fill="rgb(252,252,252)" height="10" width="10" x="110" y="200"/>
	<rect id="x12y20" class="rect" fill="rgb(60,188,252)" height="10" width="10" x="120" y="200"/>
	<rect id="x13y20" class="rect" fill="rgb(60,188,252)" height="10" width="10" x="130" y="200"/>
	<rect id="x14y20" class="rect" fill="rgb(252,252,252)" height="10" width="10" x="140" y="200"/>
	<rect id="x15y20" class="rect" fill="rgb(252,252,252)" height="10" width="10" x="150" y="200"/>
	<rect id="x16y20" class="rect" fill="rgb(252,252,252)" height="10" width="10" x="160" y="200"/>
	<rect id="x17y20" class="rect" fill="rgb(252,252,252)" height="10" width="10" x="170" y="200"/>
	<rect id="x18y20" class="rect" fill="rgb(60,188,252)" height="10" width="10" x="180" y="200"/>
	<rect id="x19y20" class="rect" fill="rgb(60,188,252)" height="10" width="10" x="190" y="200"/>
	<rect id="x20y20" class="rect" fill="rgb(60,188,252)" height="10" width="10" x="200" y="200"/>
	<rect id="x21y20" class="rect" fill="rgb(252,252,252)" height="10" width="10" x="210" y="200"/>
	<rect id="x22y20" class="rect" fill="rgb(252,252,252)" height="10" width="10" x="220" y="200"/>
	<rect id="x23y20" class="rect" fill="rgb(252,252,252)" height="10" width="10" x="230" y="200"/>
	<rect id="x24y20" class="rect" fill="rgb(252,252,252)" height="10" width="10" x="240" y="200"/>
	<rect id="x25y20" class="rect" fill="rgb(252,252,252)" height="10" width="10" x="250" y="200"/>
	<rect id="x26y20" class="rect" fill="rgb(252,252,252)" height="10" width="10" x="260" y="200"/>
	<rect id="x27y20" class="rect" fill="rgb(252,252,252)" height="10" width="10" x="270" y="200"/>
	<rect id="x28y20" class="rect" fill="rgb(252,252,252)" height="10" width="10" x="280" y="200"/>
	<rect id="x29y20" class="rect" fill="rgb(0,0,0)" height="10" width="10" x="290" y="200"/>
	<rect id="x30y20" class="rect" fill="rgb(0,0,0)" height="10" width="10" x="300" y="200"/>
	<rect id="x8y21" class="rect" fill="rgb(0,0,0)" height="10" width="10" x="80" y="210"/>
	<rect id="x9y21" class="rect" fill="rgb(252,252,252)" height="10" width="10" x="90" y="210"/>
	<rect id="x10y21" class="rect" fill="rgb(252,252,252)" height="10" width="10" x="100" y="210"/>
	<rect id="x11y21" class="rect" fill="rgb(252,252,252)" height="10" width="10" x="110" y="210"/>
	<rect id="x12y21" class="rect" fill="rgb(252,252,252)" height="10" width="10" x="120" y="210"/>
	<rect id="x13y21" class="rect" fill="rgb(252,252,252)" height="10" width="10" x="130" y="210"/>
	<rect id="x14y21" class="rect" fill="rgb(252,252,252)" height="10" width="10" x="140" y="210"/>
	<rect id="x15y21" class="rect" fill="rgb(0,0,0)" height="10" width="10" x="150" y="210"/>
	<rect id="x16y21" class="rect" fill="rgb(252,252,252)" height="10" width="10" x="160" y="210"/>
	<rect id="x17y21" class="rect" fill="rgb(252,252,252)" height="10" width="10" x="170" y="210"/>
	<rect id="x18y21" class="rect" fill="rgb(252,252,252)" height="10" width="10" x="180" y="210"/>
	<rect id="x19y21" class="rect" fill="rgb(252,252,252)" height="10" width="10" x="190" y="210"/>
	<rect id="x20y21" class="rect" fill="rgb(252,252,252)" height="10" width="10" x="200" y="210"/>
	<rect id="x21y21" class="rect" fill="rgb(252,252,252)" height="10" width="10" x="210" y="210"/>
	<rect id="x22y21" class="rect" fill="rgb(252,252,252)" height="10" width="10" x="220" y="210"/>
	<rect id="x23y21" class="rect" fill="rgb(252,252,252)" height="10" width="10" x="230" y="210"/>
	<rect id="x24y21" class="rect" fill="rgb(0,0,0)" height="10" width="10" x="240" y="210"/>
	<rect id="x25y21" class="rect" fill="rgb(252,252,252)" height="10" width="10" x="250" y="210"/>
	<rect id="x26y21" class="rect" fill="rgb(252,252,252)" height="10" width="10" x="260" y="210"/>
	<rect id="x27y21" class="rect" fill="rgb(0,0,0)" height="10" width="10" x="270" y="210"/>
	<rect id="x28y21" class="rect" fill="rgb(0,0,0)" height="10" width="10" x="280" y="210"/>
	<rect id="x9y22" class="rect" fill="rgb(0,0,0)" height="10" width="10" x="90" y="220"/>
	<rect id="x10y22" class="rect" fill="rgb(0,0,0)" height="10" width="10" x="100" y="220"/>
	<rect id="x11y22" class="rect" fill="rgb(252,252,252)" height="10" width="10" x="110" y="220"/>
	<rect id="x12y22" class="rect" fill="rgb(252,252,252)" height="10" width="10" x="120" y="220"/>
	<rect id="x13y22" class="rect" fill="rgb(252,252,252)" height="10" width="10" x="130" y="220"/>
	<rect id="x14y22" class="rect" fill="rgb(0,0,0)" height="10" width="10" x="140" y="220"/>
	<rect id="x16y22" class="rect" fill="rgb(0,0,0)" height="10" width="10" x="160" y="220"/>
	<rect id="x17y22" class="rect" fill="rgb(0,0,0)" height="10" width="10" x="170" y="220"/>
	<rect id="x18y22" class="rect" fill="rgb(252,252,252)" height="10" width="10" x="180" y="220"/>
	<rect id="x19y22" class="rect" fill="rgb(252,252,252)" height="10" width="10" x="190" y="220"/>
	<rect id="x20y22" class="rect" fill="rgb(252,252,252)" height="10" width="10" x="200" y="220"/>
	<rect id="x21y22" class="rect" fill="rgb(252,252,252)" height="10" width="10" x="210" y="220"/>
	<rect id="x22y22" class="rect" fill="rgb(0,0,0)" height="10" width="10" x="220" y="220"/>
	<rect id="x23y22" class="rect" fill="rgb(0,0,0)" height="10" width="10" x="230" y="220"/>
	<rect id="x25y22" class="rect" fill="rgb(0,0,0)" height="10" width="10" x="250" y="220"/>
	<rect id="x26y22" class="rect" fill="rgb(0,0,0)" height="10" width="10" x="260" y="220"/>
	<rect id="x11y23" class="rect" fill="rgb(0,0,0)" height="10" width="10" x="110" y="230"/>
	<rect id="x12y23" class="rect" fill="rgb(0,0,0)" height="10" width="10" x="120" y="230"/>
	<rect id="x13y23" class="rect" fill="rgb(0,0,0)" height="10" width="10" x="130" y="230"/>
	<rect id="x18y23" class="rect" fill="rgb(0,0,0)" height="10" width="10" x="180" y="230"/>
	<rect id="x19y23" class="rect" fill="rgb(0,0,0)" height="10" width="10" x="190" y="230"/>
	<rect id="x20y23" class="rect" fill="rgb(0,0,0)" height="10" width="10" x="200" y="230"/>
	<rect id="x21y23" class="rect" fill="rgb(0,0,0)" height="10" width="10" x="210" y="230"/>
</svg>